<svg xmlns="http://www.w3.org/2000/svg" viewBox="0 0 682.64 292.25"><defs><style>.cls-1{isolation:isolate;}.cls-2{fill:#0b8e68;}</style></defs><title>Ativo 3</title><g id="Camada_2" data-name="Camada 2"><g id="Prancheta_1" data-name="Prancheta 1" class="cls-1"><g id="backgorund-1_Imagem" data-name="backgorund-1 Imagem"><path class="cls-2" d="M626.91,101.88C609.07,76.73,589.13,52.07,561.59,37,495.57,1,435.3,39.17,367.86,42.82c-74.76,4-144.46-49-219-42.22C76.85,7.18-18.07,57.4,3,142.92c7.37,30,26.26,55.88,47.58,78.19,45.81,47.94,107.37,80.43,175.22,68.75C293,278.28,351.88,227.19,420,230.55c46.48,2.3,78.18,31.78,119.5,47.26,36.31,13.61,113.9,18.88,136.75-26.91C700.1,203.13,651.3,136.28,626.91,101.88Z"/></g></g></g></svg>