<svg xmlns="http://www.w3.org/2000/svg" viewBox="0 0 865.96 728.06"><defs><style>.cls-1{isolation:isolate;}.cls-2{fill:#242540;}</style></defs><title>Ativo 5</title><g id="Camada_2" data-name="Camada 2"><g id="Prancheta_1" data-name="Prancheta 1" class="cls-1"><g id="backgorund-1_Imagem" data-name="backgorund-1 Imagem"><path class="cls-2" d="M44.22,635.19s105.42,117.72,299.21,88.09c144.47-22.09,295.07.43,434.27-44.1,28.35-9.07,57.92-21.29,74.49-46,17.84-26.61,16-63.07,7.63-92.78C852.15,513.17,838,488.2,822,464.92c-24.46-35.54-54-68.15-90-91.83-28.17-18.51-60.52-31.4-94.15-35-34.43-3.72-67.44,8.89-101,14.89-38.65,6.91-70.17-.25-103.25-20.53-48.44-29.7-137-95.49-109.79-162.57,10.7-26.38,38.65-41.1,65.38-50.88,16.66-6.09,35-12.08,44.8-26.86C454.72,60.71,425,20.25,395.49,8.24,334.3-16.69,265.06,19.11,220,59.93,220,59.93-118.43,428.5,44.22,635.19Z"/></g></g></g></svg>