<svg xmlns="http://www.w3.org/2000/svg" viewBox="0 0 836.74 497.97"><defs><style>.cls-1{isolation:isolate;}.cls-2{fill:#0b8c68;}</style></defs><title>Ativo 1</title><g id="Camada_2" data-name="Camada 2"><g id="Prancheta_1" data-name="Prancheta 1" class="cls-1"><g id="backgorund-1_Imagem" data-name="backgorund-1 Imagem"><path class="cls-2" d="M807.62,393.47c-5.6,13.26-76.46,28.22-90.7,31.4-16.52,3.7-32.83-4.82-48.5-10.91-40.95-15.92-90.68-15-129.29,7.64-37.92,22.27-63.65,63.59-108.42,74.34-46.06,11.06-97-24.42-81.42-74.08,3.08-9.84,9.16-19.18,18.28-24.27,12.6-7,28.25-4.79,42.14-1.1,50.39,13.4,99.73-2.44,118.46-55.25,13.24-37.32,4.89-79-12.37-114.44-13.75-28.22-34.34-54.83-63.58-67.23-44-18.65-109-5.56-151.6,13.26-55.45,24.49-96,65.55-161.26,53.75C117.9,222.7,97.43,214,80.43,200.52c-25-19.84-41.54-47.59-54.22-76.24-5.09-11.48-37.52-97-22.07-107.35L836.74,0Z"/></g></g></g></svg>